<mxfile host="Electron" modified="2023-10-24T23:20:22.186Z" agent="Mozilla/5.0 (Windows NT 10.0; Win64; x64) AppleWebKit/537.36 (KHTML, like Gecko) draw.io/22.0.3 Chrome/114.0.5735.289 Electron/25.8.4 Safari/537.36" etag="FqufpyFcd2WzD9rms9VO" version="22.0.3" type="device">
  <diagram name="Página-1" id="0ecpuyj0GuPBf-6QMn9D">
    <mxGraphModel dx="2590" dy="1515" grid="1" gridSize="10" guides="1" tooltips="1" connect="1" arrows="1" fold="1" page="1" pageScale="1" pageWidth="827" pageHeight="1169" math="0" shadow="0">
      <root>
        <mxCell id="0" />
        <mxCell id="1" parent="0" />
        <mxCell id="YxGXr_JQNeuJcA3womBa-141" value="" style="rounded=0;whiteSpace=wrap;html=1;fillColor=#f5f5f5;strokeColor=#666666;fontColor=#333333;" vertex="1" parent="1">
          <mxGeometry x="160" y="240" width="1590" height="1290" as="geometry" />
        </mxCell>
        <mxCell id="YxGXr_JQNeuJcA3womBa-1" style="edgeStyle=orthogonalEdgeStyle;rounded=0;orthogonalLoop=1;jettySize=auto;html=1;entryX=0.5;entryY=0;entryDx=0;entryDy=0;entryPerimeter=0;" edge="1" parent="1" target="YxGXr_JQNeuJcA3womBa-3">
          <mxGeometry relative="1" as="geometry">
            <mxPoint x="825" y="170" as="targetPoint" />
            <mxPoint x="910" y="70" as="sourcePoint" />
          </mxGeometry>
        </mxCell>
        <mxCell id="YxGXr_JQNeuJcA3womBa-3" value="Funcionário" style="shape=umlActor;verticalLabelPosition=bottom;verticalAlign=top;html=1;outlineConnect=0;fillColor=#dae8fc;strokeColor=#6c8ebf;fontSize=15;" vertex="1" parent="1">
          <mxGeometry x="1090" y="140" width="30" height="60" as="geometry" />
        </mxCell>
        <mxCell id="YxGXr_JQNeuJcA3womBa-4" value="Admin" style="shape=umlActor;verticalLabelPosition=bottom;verticalAlign=top;html=1;outlineConnect=0;fillColor=#dae8fc;strokeColor=#6c8ebf;fontSize=15;" vertex="1" parent="1">
          <mxGeometry x="70" y="875" width="30" height="60" as="geometry" />
        </mxCell>
        <mxCell id="YxGXr_JQNeuJcA3womBa-5" style="edgeStyle=orthogonalEdgeStyle;rounded=0;orthogonalLoop=1;jettySize=auto;html=1;entryX=0.5;entryY=0;entryDx=0;entryDy=0;entryPerimeter=0;" edge="1" parent="1" target="YxGXr_JQNeuJcA3womBa-4">
          <mxGeometry relative="1" as="geometry">
            <mxPoint x="860" y="40" as="sourcePoint" />
            <mxPoint x="70.00000000000023" y="607" as="targetPoint" />
            <Array as="points">
              <mxPoint x="795" y="40" />
              <mxPoint x="85" y="40" />
            </Array>
          </mxGeometry>
        </mxCell>
        <mxCell id="YxGXr_JQNeuJcA3womBa-6" value="RH" style="shape=umlActor;verticalLabelPosition=bottom;verticalAlign=top;html=1;outlineConnect=0;fillColor=#dae8fc;strokeColor=#6c8ebf;fontSize=15;" vertex="1" parent="1">
          <mxGeometry x="1800" y="635" width="30" height="60" as="geometry" />
        </mxCell>
        <mxCell id="YxGXr_JQNeuJcA3womBa-7" style="edgeStyle=orthogonalEdgeStyle;rounded=0;orthogonalLoop=1;jettySize=auto;html=1;entryX=0.5;entryY=0;entryDx=0;entryDy=0;entryPerimeter=0;strokeColor=#000;" edge="1" parent="1" target="YxGXr_JQNeuJcA3womBa-6">
          <mxGeometry relative="1" as="geometry">
            <mxPoint x="900" y="40" as="sourcePoint" />
            <mxPoint x="1440" y="610" as="targetPoint" />
            <Array as="points">
              <mxPoint x="1815" y="40" />
            </Array>
          </mxGeometry>
        </mxCell>
        <mxCell id="YxGXr_JQNeuJcA3womBa-10" value="Usuário" style="shape=umlActor;verticalLabelPosition=bottom;verticalAlign=top;html=1;outlineConnect=0;fillColor=#dae8fc;strokeColor=#6c8ebf;fontSize=15;" vertex="1" parent="1">
          <mxGeometry x="865" y="20" width="30" height="60" as="geometry" />
        </mxCell>
        <mxCell id="YxGXr_JQNeuJcA3womBa-15" value="Cadastra Categoria" style="ellipse;whiteSpace=wrap;html=1;fontSize=15;fillColor=#dae8fc;strokeColor=#6c8ebf;gradientColor=#7ea6e0;fontColor=#000;" vertex="1" parent="1">
          <mxGeometry x="260" y="550" width="140" height="70" as="geometry" />
        </mxCell>
        <mxCell id="YxGXr_JQNeuJcA3womBa-16" value="Cadastra Plano de Saúde" style="ellipse;whiteSpace=wrap;html=1;fontSize=15;fillColor=#dae8fc;gradientColor=#7ea6e0;strokeColor=#6c8ebf;fontColor=#000;" vertex="1" parent="1">
          <mxGeometry x="260" y="870" width="140" height="70" as="geometry" />
        </mxCell>
        <mxCell id="YxGXr_JQNeuJcA3womBa-17" value="Cadastra Cargo" style="ellipse;whiteSpace=wrap;html=1;fontSize=15;fillColor=#dae8fc;gradientColor=#7ea6e0;strokeColor=#6c8ebf;fontColor=#000;" vertex="1" parent="1">
          <mxGeometry x="260" y="630" width="140" height="70" as="geometry" />
        </mxCell>
        <mxCell id="YxGXr_JQNeuJcA3womBa-18" value="Cadastra Veículo" style="ellipse;whiteSpace=wrap;html=1;fontSize=15;fillColor=#dae8fc;gradientColor=#7ea6e0;strokeColor=#6c8ebf;fontColor=#000;" vertex="1" parent="1">
          <mxGeometry x="260" y="710" width="140" height="70" as="geometry" />
        </mxCell>
        <mxCell id="YxGXr_JQNeuJcA3womBa-19" value="Cadastra Equipamento" style="ellipse;whiteSpace=wrap;html=1;fontSize=15;fillColor=#dae8fc;gradientColor=#7ea6e0;strokeColor=#6c8ebf;fontColor=#000;" vertex="1" parent="1">
          <mxGeometry x="260" y="790" width="140" height="70" as="geometry" />
        </mxCell>
        <mxCell id="YxGXr_JQNeuJcA3womBa-20" value="Cadastra Cidade" style="ellipse;whiteSpace=wrap;html=1;fontSize=15;fillColor=#dae8fc;gradientColor=#7ea6e0;strokeColor=#6c8ebf;fontColor=#000;" vertex="1" parent="1">
          <mxGeometry x="260" y="950" width="140" height="70" as="geometry" />
        </mxCell>
        <mxCell id="YxGXr_JQNeuJcA3womBa-21" value="Cadastra Estado" style="ellipse;whiteSpace=wrap;html=1;fontSize=15;fillColor=#dae8fc;gradientColor=#7ea6e0;strokeColor=#6c8ebf;fontColor=#000;" vertex="1" parent="1">
          <mxGeometry x="260" y="1030" width="140" height="70" as="geometry" />
        </mxCell>
        <mxCell id="YxGXr_JQNeuJcA3womBa-22" value="Cadastra Empresa" style="ellipse;whiteSpace=wrap;html=1;fontSize=15;fillColor=#dae8fc;gradientColor=#7ea6e0;strokeColor=#6c8ebf;fontColor=#000;" vertex="1" parent="1">
          <mxGeometry x="260" y="1110" width="140" height="70" as="geometry" />
        </mxCell>
        <mxCell id="YxGXr_JQNeuJcA3womBa-23" value="Cadastra Funcionário" style="ellipse;whiteSpace=wrap;html=1;fontSize=15;fillColor=#dae8fc;gradientColor=#7ea6e0;strokeColor=#6c8ebf;fontColor=#000;" vertex="1" parent="1">
          <mxGeometry x="260" y="1190" width="140" height="70" as="geometry" />
        </mxCell>
        <mxCell id="YxGXr_JQNeuJcA3womBa-24" value="Consulta, Edita, Exclui Usuário" style="ellipse;whiteSpace=wrap;html=1;fontSize=15;fillColor=#dae8fc;gradientColor=#7ea6e0;strokeColor=#6c8ebf;fontColor=#000;" vertex="1" parent="1">
          <mxGeometry x="260" y="1270" width="140" height="70" as="geometry" />
        </mxCell>
        <mxCell id="YxGXr_JQNeuJcA3womBa-25" value="Definir/Alterar Permissões" style="ellipse;whiteSpace=wrap;html=1;fontSize=15;fillColor=#dae8fc;gradientColor=#7ea6e0;strokeColor=#6c8ebf;fontColor=#000;" vertex="1" parent="1">
          <mxGeometry x="820" y="1420" width="140" height="70" as="geometry" />
        </mxCell>
        <mxCell id="YxGXr_JQNeuJcA3womBa-28" value="&amp;lt;&amp;lt;extend&amp;gt;&amp;gt;" style="endArrow=open;endSize=12;dashed=1;html=1;rounded=0;fontSize=14;strokeColor=#666;" edge="1" parent="1">
          <mxGeometry width="160" relative="1" as="geometry">
            <mxPoint x="540" y="585" as="sourcePoint" />
            <mxPoint x="400" y="585" as="targetPoint" />
          </mxGeometry>
        </mxCell>
        <mxCell id="YxGXr_JQNeuJcA3womBa-29" value="Consulta Categoria" style="ellipse;whiteSpace=wrap;html=1;fontSize=15;fillColor=#dae8fc;gradientColor=#7ea6e0;strokeColor=#6c8ebf;fontColor=#000;" vertex="1" parent="1">
          <mxGeometry x="540" y="550" width="140" height="70" as="geometry" />
        </mxCell>
        <mxCell id="YxGXr_JQNeuJcA3womBa-30" value="Consulta Equipamento" style="ellipse;whiteSpace=wrap;html=1;fontSize=15;fillColor=#dae8fc;gradientColor=#7ea6e0;strokeColor=#6c8ebf;fontColor=#000;" vertex="1" parent="1">
          <mxGeometry x="540" y="790" width="140" height="70" as="geometry" />
        </mxCell>
        <mxCell id="YxGXr_JQNeuJcA3womBa-31" value="Consulta Cargo" style="ellipse;whiteSpace=wrap;html=1;fontSize=15;fillColor=#dae8fc;gradientColor=#7ea6e0;strokeColor=#6c8ebf;fontColor=#000;" vertex="1" parent="1">
          <mxGeometry x="540" y="630" width="140" height="70" as="geometry" />
        </mxCell>
        <mxCell id="YxGXr_JQNeuJcA3womBa-32" value="Consulta Veículo" style="ellipse;whiteSpace=wrap;html=1;fontSize=15;fillColor=#dae8fc;gradientColor=#7ea6e0;strokeColor=#6c8ebf;fontColor=#000;" vertex="1" parent="1">
          <mxGeometry x="540" y="710" width="140" height="70" as="geometry" />
        </mxCell>
        <mxCell id="YxGXr_JQNeuJcA3womBa-33" value="Consulta Plano de Saúde" style="ellipse;whiteSpace=wrap;html=1;fontSize=15;fillColor=#dae8fc;gradientColor=#7ea6e0;strokeColor=#6c8ebf;fontColor=#000;" vertex="1" parent="1">
          <mxGeometry x="540" y="870" width="140" height="70" as="geometry" />
        </mxCell>
        <mxCell id="YxGXr_JQNeuJcA3womBa-34" value="Consulta Cidade" style="ellipse;whiteSpace=wrap;html=1;fontSize=15;fillColor=#dae8fc;gradientColor=#7ea6e0;strokeColor=#6c8ebf;fontColor=#000;" vertex="1" parent="1">
          <mxGeometry x="540" y="950" width="140" height="70" as="geometry" />
        </mxCell>
        <mxCell id="YxGXr_JQNeuJcA3womBa-35" value="Consulta Estado" style="ellipse;whiteSpace=wrap;html=1;fontSize=15;fillColor=#dae8fc;gradientColor=#7ea6e0;strokeColor=#6c8ebf;fontColor=#000;" vertex="1" parent="1">
          <mxGeometry x="540" y="1030" width="140" height="70" as="geometry" />
        </mxCell>
        <mxCell id="YxGXr_JQNeuJcA3womBa-36" value="Consulta Empresa" style="ellipse;whiteSpace=wrap;html=1;fontSize=15;fillColor=#dae8fc;gradientColor=#7ea6e0;strokeColor=#6c8ebf;fontColor=#000;" vertex="1" parent="1">
          <mxGeometry x="540" y="1110" width="140" height="70" as="geometry" />
        </mxCell>
        <mxCell id="YxGXr_JQNeuJcA3womBa-37" value="Consulta Funcionário" style="ellipse;whiteSpace=wrap;html=1;fontSize=15;fillColor=#dae8fc;gradientColor=#7ea6e0;strokeColor=#6c8ebf;fontColor=#000;" vertex="1" parent="1">
          <mxGeometry x="540" y="1190" width="140" height="70" as="geometry" />
        </mxCell>
        <mxCell id="YxGXr_JQNeuJcA3womBa-40" value="&amp;lt;&amp;lt;extend&amp;gt;&amp;gt;" style="endArrow=open;endSize=12;dashed=1;html=1;rounded=0;fontSize=14;strokeColor=#666;" edge="1" parent="1">
          <mxGeometry width="160" relative="1" as="geometry">
            <mxPoint x="540" y="664.17" as="sourcePoint" />
            <mxPoint x="400" y="664.17" as="targetPoint" />
          </mxGeometry>
        </mxCell>
        <mxCell id="YxGXr_JQNeuJcA3womBa-41" value="&amp;lt;&amp;lt;extend&amp;gt;&amp;gt;" style="endArrow=open;endSize=12;dashed=1;html=1;rounded=0;fontSize=14;strokeColor=#666;" edge="1" parent="1">
          <mxGeometry width="160" relative="1" as="geometry">
            <mxPoint x="540" y="744.17" as="sourcePoint" />
            <mxPoint x="400" y="744.17" as="targetPoint" />
          </mxGeometry>
        </mxCell>
        <mxCell id="YxGXr_JQNeuJcA3womBa-42" value="&amp;lt;&amp;lt;extend&amp;gt;&amp;gt;" style="endArrow=open;endSize=12;dashed=1;html=1;rounded=0;fontSize=14;strokeColor=#666;" edge="1" parent="1">
          <mxGeometry width="160" relative="1" as="geometry">
            <mxPoint x="540" y="824.17" as="sourcePoint" />
            <mxPoint x="400" y="824.17" as="targetPoint" />
          </mxGeometry>
        </mxCell>
        <mxCell id="YxGXr_JQNeuJcA3womBa-43" value="&amp;lt;&amp;lt;extend&amp;gt;&amp;gt;" style="endArrow=open;endSize=12;dashed=1;html=1;rounded=0;fontSize=14;strokeColor=#666;" edge="1" parent="1">
          <mxGeometry width="160" relative="1" as="geometry">
            <mxPoint x="540" y="910" as="sourcePoint" />
            <mxPoint x="400" y="910" as="targetPoint" />
          </mxGeometry>
        </mxCell>
        <mxCell id="YxGXr_JQNeuJcA3womBa-44" value="&amp;lt;&amp;lt;extend&amp;gt;&amp;gt;" style="endArrow=open;endSize=12;dashed=1;html=1;rounded=0;fontSize=14;strokeColor=#666;" edge="1" parent="1">
          <mxGeometry width="160" relative="1" as="geometry">
            <mxPoint x="540" y="984.17" as="sourcePoint" />
            <mxPoint x="400" y="984.17" as="targetPoint" />
          </mxGeometry>
        </mxCell>
        <mxCell id="YxGXr_JQNeuJcA3womBa-45" value="&amp;lt;&amp;lt;extend&amp;gt;&amp;gt;" style="endArrow=open;endSize=12;dashed=1;html=1;rounded=0;fontSize=14;strokeColor=#666;" edge="1" parent="1">
          <mxGeometry width="160" relative="1" as="geometry">
            <mxPoint x="540" y="1064.17" as="sourcePoint" />
            <mxPoint x="400" y="1064.17" as="targetPoint" />
          </mxGeometry>
        </mxCell>
        <mxCell id="YxGXr_JQNeuJcA3womBa-46" value="&amp;lt;&amp;lt;extend&amp;gt;&amp;gt;" style="endArrow=open;endSize=12;dashed=1;html=1;rounded=0;fontSize=14;strokeColor=#666;" edge="1" parent="1">
          <mxGeometry width="160" relative="1" as="geometry">
            <mxPoint x="540" y="1150" as="sourcePoint" />
            <mxPoint x="400" y="1150" as="targetPoint" />
          </mxGeometry>
        </mxCell>
        <mxCell id="YxGXr_JQNeuJcA3womBa-47" value="&amp;lt;&amp;lt;extend&amp;gt;&amp;gt;" style="endArrow=open;endSize=12;dashed=1;html=1;rounded=0;fontSize=14;strokeColor=#666;" edge="1" parent="1">
          <mxGeometry width="160" relative="1" as="geometry">
            <mxPoint x="540" y="1224.17" as="sourcePoint" />
            <mxPoint x="400" y="1224.17" as="targetPoint" />
          </mxGeometry>
        </mxCell>
        <mxCell id="YxGXr_JQNeuJcA3womBa-61" value="" style="endArrow=none;html=1;rounded=0;entryX=0;entryY=0.5;entryDx=0;entryDy=0;strokeColor=#666;" edge="1" parent="1" target="YxGXr_JQNeuJcA3womBa-15">
          <mxGeometry width="50" height="50" relative="1" as="geometry">
            <mxPoint x="100" y="860" as="sourcePoint" />
            <mxPoint x="780" y="730" as="targetPoint" />
          </mxGeometry>
        </mxCell>
        <mxCell id="YxGXr_JQNeuJcA3womBa-62" value="" style="endArrow=none;html=1;rounded=0;entryX=0;entryY=0.5;entryDx=0;entryDy=0;strokeColor=#666;" edge="1" parent="1" target="YxGXr_JQNeuJcA3womBa-17">
          <mxGeometry width="50" height="50" relative="1" as="geometry">
            <mxPoint x="110" y="870" as="sourcePoint" />
            <mxPoint x="780" y="900" as="targetPoint" />
          </mxGeometry>
        </mxCell>
        <mxCell id="YxGXr_JQNeuJcA3womBa-63" value="" style="endArrow=none;html=1;rounded=0;entryX=0;entryY=0.5;entryDx=0;entryDy=0;strokeColor=#666;" edge="1" parent="1" target="YxGXr_JQNeuJcA3womBa-18">
          <mxGeometry width="50" height="50" relative="1" as="geometry">
            <mxPoint x="110" y="880" as="sourcePoint" />
            <mxPoint x="780" y="900" as="targetPoint" />
          </mxGeometry>
        </mxCell>
        <mxCell id="YxGXr_JQNeuJcA3womBa-64" value="" style="endArrow=none;html=1;rounded=0;entryX=0;entryY=0.5;entryDx=0;entryDy=0;strokeColor=#666;" edge="1" parent="1" target="YxGXr_JQNeuJcA3womBa-19">
          <mxGeometry width="50" height="50" relative="1" as="geometry">
            <mxPoint x="120" y="890" as="sourcePoint" />
            <mxPoint x="780" y="900" as="targetPoint" />
          </mxGeometry>
        </mxCell>
        <mxCell id="YxGXr_JQNeuJcA3womBa-65" value="" style="endArrow=none;html=1;rounded=0;entryX=0;entryY=0.5;entryDx=0;entryDy=0;strokeColor=#666;" edge="1" parent="1" target="YxGXr_JQNeuJcA3womBa-16">
          <mxGeometry width="50" height="50" relative="1" as="geometry">
            <mxPoint x="120" y="905" as="sourcePoint" />
            <mxPoint x="780" y="900" as="targetPoint" />
          </mxGeometry>
        </mxCell>
        <mxCell id="YxGXr_JQNeuJcA3womBa-66" value="" style="endArrow=none;html=1;rounded=0;entryX=0;entryY=0.5;entryDx=0;entryDy=0;strokeColor=#666;" edge="1" parent="1" target="YxGXr_JQNeuJcA3womBa-20">
          <mxGeometry width="50" height="50" relative="1" as="geometry">
            <mxPoint x="120" y="920" as="sourcePoint" />
            <mxPoint x="780" y="900" as="targetPoint" />
          </mxGeometry>
        </mxCell>
        <mxCell id="YxGXr_JQNeuJcA3womBa-67" value="" style="endArrow=none;html=1;rounded=0;entryX=0;entryY=0.5;entryDx=0;entryDy=0;strokeColor=#666;" edge="1" parent="1" target="YxGXr_JQNeuJcA3womBa-21">
          <mxGeometry width="50" height="50" relative="1" as="geometry">
            <mxPoint x="120" y="930" as="sourcePoint" />
            <mxPoint x="780" y="900" as="targetPoint" />
          </mxGeometry>
        </mxCell>
        <mxCell id="YxGXr_JQNeuJcA3womBa-68" value="" style="endArrow=none;html=1;rounded=0;entryX=0;entryY=0.5;entryDx=0;entryDy=0;strokeColor=#666;" edge="1" parent="1" target="YxGXr_JQNeuJcA3womBa-22">
          <mxGeometry width="50" height="50" relative="1" as="geometry">
            <mxPoint x="120" y="940" as="sourcePoint" />
            <mxPoint x="780" y="900" as="targetPoint" />
          </mxGeometry>
        </mxCell>
        <mxCell id="YxGXr_JQNeuJcA3womBa-69" value="" style="endArrow=none;html=1;rounded=0;entryX=0;entryY=0.5;entryDx=0;entryDy=0;strokeColor=#666;" edge="1" parent="1" target="YxGXr_JQNeuJcA3womBa-23">
          <mxGeometry width="50" height="50" relative="1" as="geometry">
            <mxPoint x="120" y="950" as="sourcePoint" />
            <mxPoint x="780" y="900" as="targetPoint" />
          </mxGeometry>
        </mxCell>
        <mxCell id="YxGXr_JQNeuJcA3womBa-70" value="" style="endArrow=none;html=1;rounded=0;entryX=0;entryY=0.5;entryDx=0;entryDy=0;strokeColor=#666;" edge="1" parent="1" target="YxGXr_JQNeuJcA3womBa-24">
          <mxGeometry width="50" height="50" relative="1" as="geometry">
            <mxPoint x="110" y="960" as="sourcePoint" />
            <mxPoint x="780" y="900" as="targetPoint" />
          </mxGeometry>
        </mxCell>
        <mxCell id="YxGXr_JQNeuJcA3womBa-72" value="" style="endArrow=none;html=1;rounded=0;exitX=0;exitY=0.5;exitDx=0;exitDy=0;strokeColor=#666;" edge="1" parent="1" source="YxGXr_JQNeuJcA3womBa-25">
          <mxGeometry width="50" height="50" relative="1" as="geometry">
            <mxPoint x="80" y="1520" as="sourcePoint" />
            <mxPoint x="80" y="970" as="targetPoint" />
            <Array as="points">
              <mxPoint x="80" y="1455" />
            </Array>
          </mxGeometry>
        </mxCell>
        <mxCell id="YxGXr_JQNeuJcA3womBa-73" value="Realiza Registro" style="ellipse;whiteSpace=wrap;html=1;fontSize=15;fillColor=#dae8fc;gradientColor=#7ea6e0;strokeColor=#6c8ebf;fontColor=#000;" vertex="1" parent="1">
          <mxGeometry x="820" y="805" width="140" height="70" as="geometry" />
        </mxCell>
        <mxCell id="YxGXr_JQNeuJcA3womBa-74" value="" style="endArrow=none;html=1;rounded=0;exitX=0.5;exitY=0;exitDx=0;exitDy=0;strokeColor=#666;" edge="1" parent="1" source="YxGXr_JQNeuJcA3womBa-73">
          <mxGeometry width="50" height="50" relative="1" as="geometry">
            <mxPoint x="710" y="620" as="sourcePoint" />
            <mxPoint x="890" y="110" as="targetPoint" />
          </mxGeometry>
        </mxCell>
        <mxCell id="YxGXr_JQNeuJcA3womBa-75" value="&amp;lt;&amp;lt;include&amp;gt;&amp;gt;" style="endArrow=open;endSize=12;dashed=1;html=1;rounded=0;entryX=0.5;entryY=1;entryDx=0;entryDy=0;fontSize=14;strokeColor=#666;" edge="1" parent="1" source="YxGXr_JQNeuJcA3womBa-25" target="YxGXr_JQNeuJcA3womBa-73">
          <mxGeometry width="160" relative="1" as="geometry">
            <mxPoint x="660" y="1100" as="sourcePoint" />
            <mxPoint x="820" y="1100" as="targetPoint" />
          </mxGeometry>
        </mxCell>
        <mxCell id="YxGXr_JQNeuJcA3womBa-77" value="CheckAcessView" style="text;strokeColor=none;fillColor=none;align=left;verticalAlign=top;spacingLeft=4;spacingRight=4;overflow=hidden;rotatable=0;points=[[0,0.5],[1,0.5]];portConstraint=eastwest;whiteSpace=wrap;html=1;fontSize=18;fontStyle=1" vertex="1" parent="1">
          <mxGeometry x="180" y="260" width="170" height="26" as="geometry" />
        </mxCell>
        <mxCell id="YxGXr_JQNeuJcA3womBa-78" value="" style="endArrow=none;html=1;rounded=0;exitX=0.5;exitY=0;exitDx=0;exitDy=0;strokeColor=#666;" edge="1" parent="1" source="YxGXr_JQNeuJcA3womBa-79">
          <mxGeometry width="50" height="50" relative="1" as="geometry">
            <mxPoint x="989.44" y="410.03999999999996" as="sourcePoint" />
            <mxPoint x="850" y="110" as="targetPoint" />
          </mxGeometry>
        </mxCell>
        <mxCell id="YxGXr_JQNeuJcA3womBa-79" value="Realiza Login" style="ellipse;whiteSpace=wrap;html=1;fontSize=15;fillColor=#dae8fc;gradientColor=#7ea6e0;strokeColor=#6c8ebf;fontColor=#000;" vertex="1" parent="1">
          <mxGeometry x="510" y="380" width="140" height="70" as="geometry" />
        </mxCell>
        <mxCell id="YxGXr_JQNeuJcA3womBa-80" value="Redefine Senha" style="ellipse;whiteSpace=wrap;html=1;fontSize=15;fillColor=#dae8fc;gradientColor=#7ea6e0;strokeColor=#6c8ebf;fontColor=#000;" vertex="1" parent="1">
          <mxGeometry x="350" y="380" width="140" height="70" as="geometry" />
        </mxCell>
        <mxCell id="YxGXr_JQNeuJcA3womBa-81" value="" style="endArrow=none;html=1;rounded=0;entryX=0.5;entryY=0;entryDx=0;entryDy=0;strokeColor=#666;" edge="1" parent="1" target="YxGXr_JQNeuJcA3womBa-80">
          <mxGeometry width="50" height="50" relative="1" as="geometry">
            <mxPoint x="850" y="60" as="sourcePoint" />
            <mxPoint x="760" y="570" as="targetPoint" />
          </mxGeometry>
        </mxCell>
        <mxCell id="YxGXr_JQNeuJcA3womBa-88" value="Visualiza/Edita Perfil" style="ellipse;whiteSpace=wrap;html=1;fontSize=15;fillColor=#dae8fc;gradientColor=#7ea6e0;strokeColor=#6c8ebf;fontColor=#000;" vertex="1" parent="1">
          <mxGeometry x="660" y="380" width="140" height="70" as="geometry" />
        </mxCell>
        <mxCell id="YxGXr_JQNeuJcA3womBa-90" value="" style="endArrow=none;html=1;rounded=0;strokeColor=#666;" edge="1" parent="1" source="YxGXr_JQNeuJcA3womBa-88">
          <mxGeometry width="50" height="50" relative="1" as="geometry">
            <mxPoint x="840" y="500" as="sourcePoint" />
            <mxPoint x="860" y="130" as="targetPoint" />
          </mxGeometry>
        </mxCell>
        <mxCell id="YxGXr_JQNeuJcA3womBa-94" value="" style="endArrow=none;html=1;rounded=0;exitX=1;exitY=0.5;exitDx=0;exitDy=0;strokeColor=#666;" edge="1" parent="1" source="YxGXr_JQNeuJcA3womBa-25">
          <mxGeometry width="50" height="50" relative="1" as="geometry">
            <mxPoint x="840" y="1100" as="sourcePoint" />
            <mxPoint x="1820" y="730" as="targetPoint" />
            <Array as="points">
              <mxPoint x="1820" y="1460" />
            </Array>
          </mxGeometry>
        </mxCell>
        <mxCell id="YxGXr_JQNeuJcA3womBa-95" value="Cadastra Holerite" style="ellipse;whiteSpace=wrap;html=1;fontSize=15;fillColor=#dae8fc;gradientColor=#7ea6e0;strokeColor=#6c8ebf;fontColor=#000;" vertex="1" parent="1">
          <mxGeometry x="1510" y="460" width="140" height="70" as="geometry" />
        </mxCell>
        <mxCell id="YxGXr_JQNeuJcA3womBa-96" value="" style="endArrow=none;html=1;rounded=0;entryX=1;entryY=1;entryDx=0;entryDy=0;strokeColor=#666;" edge="1" parent="1" target="YxGXr_JQNeuJcA3womBa-95">
          <mxGeometry width="50" height="50" relative="1" as="geometry">
            <mxPoint x="1780" y="620" as="sourcePoint" />
            <mxPoint x="890" y="450" as="targetPoint" />
          </mxGeometry>
        </mxCell>
        <mxCell id="YxGXr_JQNeuJcA3womBa-97" value="Visualiza Holerite&lt;br&gt;Próprio" style="ellipse;whiteSpace=wrap;html=1;fontSize=15;fillColor=#dae8fc;gradientColor=#7ea6e0;strokeColor=#6c8ebf;fontColor=#000;" vertex="1" parent="1">
          <mxGeometry x="1241" y="460" width="140" height="70" as="geometry" />
        </mxCell>
        <mxCell id="YxGXr_JQNeuJcA3womBa-98" value="" style="endArrow=none;html=1;rounded=0;exitX=0;exitY=0;exitDx=0;exitDy=0;strokeColor=#666;" edge="1" parent="1" source="YxGXr_JQNeuJcA3womBa-97">
          <mxGeometry width="50" height="50" relative="1" as="geometry">
            <mxPoint x="840" y="500" as="sourcePoint" />
            <mxPoint x="1150" y="220" as="targetPoint" />
          </mxGeometry>
        </mxCell>
        <mxCell id="YxGXr_JQNeuJcA3womBa-99" value="&amp;lt;&amp;lt;extend&amp;gt;&amp;gt;" style="endArrow=open;endSize=12;dashed=1;html=1;rounded=0;exitX=1;exitY=0.5;exitDx=0;exitDy=0;fontSize=15;entryX=0;entryY=0.5;entryDx=0;entryDy=0;strokeColor=#666;" edge="1" parent="1" source="YxGXr_JQNeuJcA3womBa-97" target="YxGXr_JQNeuJcA3womBa-95">
          <mxGeometry width="160" relative="1" as="geometry">
            <mxPoint x="780" y="470" as="sourcePoint" />
            <mxPoint x="1420" y="480" as="targetPoint" />
          </mxGeometry>
        </mxCell>
        <mxCell id="YxGXr_JQNeuJcA3womBa-100" value="Visualiza Todos Holerites" style="ellipse;whiteSpace=wrap;html=1;fontSize=15;fillColor=#dae8fc;gradientColor=#7ea6e0;strokeColor=#6c8ebf;fontColor=#000;" vertex="1" parent="1">
          <mxGeometry x="1510" y="300" width="140" height="70" as="geometry" />
        </mxCell>
        <mxCell id="YxGXr_JQNeuJcA3womBa-102" value="" style="endArrow=none;html=1;rounded=0;entryX=1;entryY=0.5;entryDx=0;entryDy=0;strokeColor=#666;" edge="1" parent="1" target="YxGXr_JQNeuJcA3womBa-100">
          <mxGeometry width="50" height="50" relative="1" as="geometry">
            <mxPoint x="1790" y="610" as="sourcePoint" />
            <mxPoint x="890" y="450" as="targetPoint" />
          </mxGeometry>
        </mxCell>
        <mxCell id="YxGXr_JQNeuJcA3womBa-103" value="&amp;lt;&amp;lt;extend&amp;gt;&amp;gt;" style="endArrow=open;endSize=12;dashed=1;html=1;rounded=0;entryX=0.5;entryY=0;entryDx=0;entryDy=0;exitX=0.5;exitY=1;exitDx=0;exitDy=0;fontSize=15;strokeColor=#666;" edge="1" parent="1" source="YxGXr_JQNeuJcA3womBa-100" target="YxGXr_JQNeuJcA3womBa-95">
          <mxGeometry width="160" relative="1" as="geometry">
            <mxPoint x="780" y="470" as="sourcePoint" />
            <mxPoint x="940" y="470" as="targetPoint" />
          </mxGeometry>
        </mxCell>
        <mxCell id="YxGXr_JQNeuJcA3womBa-105" value="&amp;lt;&amp;lt;extend&amp;gt;&amp;gt;" style="endArrow=open;endSize=12;dashed=1;html=1;rounded=0;entryX=0;entryY=0;entryDx=0;entryDy=0;exitX=0.5;exitY=1;exitDx=0;exitDy=0;fontSize=15;strokeColor=#666;" edge="1" parent="1" source="YxGXr_JQNeuJcA3womBa-88" target="YxGXr_JQNeuJcA3womBa-73">
          <mxGeometry width="160" relative="1" as="geometry">
            <mxPoint x="780" y="670" as="sourcePoint" />
            <mxPoint x="940" y="670" as="targetPoint" />
          </mxGeometry>
        </mxCell>
        <mxCell id="YxGXr_JQNeuJcA3womBa-140" value="" style="edgeStyle=orthogonalEdgeStyle;rounded=0;orthogonalLoop=1;jettySize=auto;html=1;" edge="1" parent="1" source="YxGXr_JQNeuJcA3womBa-115" target="YxGXr_JQNeuJcA3womBa-139">
          <mxGeometry relative="1" as="geometry" />
        </mxCell>
        <mxCell id="YxGXr_JQNeuJcA3womBa-115" value="Visualiza Ponto&lt;br&gt;Próprio" style="ellipse;whiteSpace=wrap;html=1;fontSize=15;fillColor=#dae8fc;gradientColor=#7ea6e0;strokeColor=#6c8ebf;fontColor=#000;" vertex="1" parent="1">
          <mxGeometry x="1241" y="750" width="140" height="70" as="geometry" />
        </mxCell>
        <mxCell id="YxGXr_JQNeuJcA3womBa-116" value="Registra Ponto" style="ellipse;whiteSpace=wrap;html=1;fontSize=15;fillColor=#dae8fc;gradientColor=#7ea6e0;strokeColor=#6c8ebf;fontColor=#000;" vertex="1" parent="1">
          <mxGeometry x="1241" y="600" width="140" height="70" as="geometry" />
        </mxCell>
        <mxCell id="YxGXr_JQNeuJcA3womBa-118" value="&amp;lt;&amp;lt;extend&amp;gt;&amp;gt;" style="endArrow=open;endSize=12;dashed=1;html=1;rounded=0;fontSize=15;entryX=0.5;entryY=1;entryDx=0;entryDy=0;strokeColor=#666;" edge="1" parent="1" source="YxGXr_JQNeuJcA3womBa-115" target="YxGXr_JQNeuJcA3womBa-116">
          <mxGeometry width="160" relative="1" as="geometry">
            <mxPoint x="1381" y="669" as="sourcePoint" />
            <mxPoint x="1510" y="669" as="targetPoint" />
          </mxGeometry>
        </mxCell>
        <mxCell id="YxGXr_JQNeuJcA3womBa-120" value="" style="endArrow=none;html=1;rounded=0;entryX=1;entryY=0.5;entryDx=0;entryDy=0;strokeColor=#666;" edge="1" parent="1" target="YxGXr_JQNeuJcA3womBa-116">
          <mxGeometry width="50" height="50" relative="1" as="geometry">
            <mxPoint x="1780" y="660" as="sourcePoint" />
            <mxPoint x="890" y="440" as="targetPoint" />
          </mxGeometry>
        </mxCell>
        <mxCell id="YxGXr_JQNeuJcA3womBa-122" value="Visualiza Todos Pontos" style="ellipse;whiteSpace=wrap;html=1;fontSize=15;fillColor=#dae8fc;gradientColor=#7ea6e0;strokeColor=#6c8ebf;fontColor=#000;" vertex="1" parent="1">
          <mxGeometry x="1510" y="750" width="140" height="70" as="geometry" />
        </mxCell>
        <mxCell id="YxGXr_JQNeuJcA3womBa-123" value="&amp;lt;&amp;lt;extend&amp;gt;&amp;gt;" style="endArrow=open;endSize=12;dashed=1;html=1;rounded=0;fontSize=15;entryX=1;entryY=1;entryDx=0;entryDy=0;strokeColor=#666;" edge="1" parent="1" source="YxGXr_JQNeuJcA3womBa-122" target="YxGXr_JQNeuJcA3womBa-116">
          <mxGeometry width="160" relative="1" as="geometry">
            <mxPoint x="1410" y="700" as="sourcePoint" />
            <mxPoint x="1524" y="700" as="targetPoint" />
          </mxGeometry>
        </mxCell>
        <mxCell id="YxGXr_JQNeuJcA3womBa-124" value="" style="endArrow=none;html=1;rounded=0;entryX=1;entryY=0.5;entryDx=0;entryDy=0;strokeColor=#666;" edge="1" parent="1" target="YxGXr_JQNeuJcA3womBa-122">
          <mxGeometry width="50" height="50" relative="1" as="geometry">
            <mxPoint x="1780" y="680" as="sourcePoint" />
            <mxPoint x="890" y="640" as="targetPoint" />
          </mxGeometry>
        </mxCell>
        <mxCell id="YxGXr_JQNeuJcA3womBa-125" value="Registra Plantão" style="ellipse;whiteSpace=wrap;html=1;fontSize=15;fillColor=#dae8fc;gradientColor=#7ea6e0;strokeColor=#6c8ebf;fontColor=#000;" vertex="1" parent="1">
          <mxGeometry x="1010" y="910" width="140" height="70" as="geometry" />
        </mxCell>
        <mxCell id="YxGXr_JQNeuJcA3womBa-126" value="" style="endArrow=none;html=1;rounded=0;strokeColor=#666;" edge="1" parent="1" source="YxGXr_JQNeuJcA3womBa-125">
          <mxGeometry width="50" height="50" relative="1" as="geometry">
            <mxPoint x="840" y="690" as="sourcePoint" />
            <mxPoint x="1080" y="250" as="targetPoint" />
          </mxGeometry>
        </mxCell>
        <mxCell id="YxGXr_JQNeuJcA3womBa-127" value="" style="endArrow=none;html=1;rounded=0;exitX=0;exitY=0;exitDx=0;exitDy=0;strokeColor=#666;" edge="1" parent="1" source="YxGXr_JQNeuJcA3womBa-116">
          <mxGeometry width="50" height="50" relative="1" as="geometry">
            <mxPoint x="1260" y="570" as="sourcePoint" />
            <mxPoint x="1130" y="230" as="targetPoint" />
            <Array as="points" />
          </mxGeometry>
        </mxCell>
        <mxCell id="YxGXr_JQNeuJcA3womBa-128" value="Visualiza Plantão" style="ellipse;whiteSpace=wrap;html=1;fontSize=15;fillColor=#dae8fc;gradientColor=#7ea6e0;strokeColor=#6c8ebf;fontColor=#000;" vertex="1" parent="1">
          <mxGeometry x="1241" y="910" width="140" height="70" as="geometry" />
        </mxCell>
        <mxCell id="YxGXr_JQNeuJcA3womBa-130" value="&amp;lt;&amp;lt;extend&amp;gt;&amp;gt;" style="endArrow=open;endSize=12;dashed=1;html=1;rounded=0;exitX=1;exitY=0.5;exitDx=0;exitDy=0;fontSize=15;entryX=0;entryY=0.5;entryDx=0;entryDy=0;strokeColor=#666;" edge="1" parent="1" source="YxGXr_JQNeuJcA3womBa-125" target="YxGXr_JQNeuJcA3womBa-128">
          <mxGeometry width="160" relative="1" as="geometry">
            <mxPoint x="1130" y="948" as="sourcePoint" />
            <mxPoint x="1250" y="948" as="targetPoint" />
          </mxGeometry>
        </mxCell>
        <mxCell id="YxGXr_JQNeuJcA3womBa-132" value="" style="endArrow=none;html=1;rounded=0;exitX=1;exitY=0;exitDx=0;exitDy=0;strokeColor=#666;" edge="1" parent="1" source="YxGXr_JQNeuJcA3womBa-134">
          <mxGeometry width="50" height="50" relative="1" as="geometry">
            <mxPoint x="1530" y="1080" as="sourcePoint" />
            <mxPoint x="1790" y="730" as="targetPoint" />
          </mxGeometry>
        </mxCell>
        <mxCell id="YxGXr_JQNeuJcA3womBa-134" value="Visualiza Relatório Pontos" style="ellipse;whiteSpace=wrap;html=1;fontSize=15;fillColor=#dae8fc;gradientColor=#7ea6e0;strokeColor=#6c8ebf;fontColor=#000;" vertex="1" parent="1">
          <mxGeometry x="1360" y="1040" width="140" height="70" as="geometry" />
        </mxCell>
        <mxCell id="YxGXr_JQNeuJcA3womBa-135" value="Visualiza Relatório Plantões" style="ellipse;whiteSpace=wrap;html=1;fontSize=15;fillColor=#dae8fc;gradientColor=#7ea6e0;strokeColor=#6c8ebf;fontColor=#000;" vertex="1" parent="1">
          <mxGeometry x="1360" y="1130" width="140" height="70" as="geometry" />
        </mxCell>
        <mxCell id="YxGXr_JQNeuJcA3womBa-136" value="" style="endArrow=none;html=1;rounded=0;exitX=1;exitY=0;exitDx=0;exitDy=0;strokeColor=#666;" edge="1" parent="1" source="YxGXr_JQNeuJcA3womBa-135">
          <mxGeometry width="50" height="50" relative="1" as="geometry">
            <mxPoint x="840" y="1090" as="sourcePoint" />
            <mxPoint x="1810" y="760" as="targetPoint" />
          </mxGeometry>
        </mxCell>
        <mxCell id="YxGXr_JQNeuJcA3womBa-139" value="Registra Ponto" style="ellipse;whiteSpace=wrap;html=1;fontSize=15;fillColor=#dae8fc;gradientColor=#7ea6e0;strokeColor=#6c8ebf;fontColor=#000;" vertex="1" parent="1">
          <mxGeometry x="1241" y="600" width="140" height="70" as="geometry" />
        </mxCell>
      </root>
    </mxGraphModel>
  </diagram>
</mxfile>
